<?xml version="1.0" encoding="utf-8"?>
<!-- Generator: Adobe Illustrator 19.0.1, SVG Export Plug-In . SVG Version: 6.00 Build 0)  -->
<svg version="1.1" id="shopping_x5F_carts_1_" xmlns="http://www.w3.org/2000/svg" xmlns:xlink="http://www.w3.org/1999/xlink"
	 x="0px" y="0px" viewBox="0 0 128 128" style="enable-background:new 0 0 128 128;" xml:space="preserve">
<style type="text/css">
	.st0{display:none;}
	.st1{display:inline;}
	.st2{fill:#020202;}
	.st3{display:inline;fill:#020202;}
</style>
<g id="_x31_5_1_" class="st0">
	<g id="icon" class="st1">
		<path class="st2" d="M122.6,46.3H70.8V19.1c0-3-2.4-5.4-5.4-5.4c-3,0-5.4,2.4-5.4,5.4v27.2H5.4c-3,0-5.4,2.4-5.4,5.4
			c0,3,2.4,5.4,5.4,5.4h117.1c3,0,5.4-2.4,5.4-5.4C128,48.7,125.6,46.3,122.6,46.3z M19.1,106.2c0,4.5,3.7,8.2,8.2,8.2h73.5
			c4.5,0,8.2-3.7,8.2-8.2l10.9-46.3H8.2L19.1,106.2z M95.3,69.4c0-0.8,0.6-1.4,1.4-1.4c0.8,0,1.4,0.6,1.4,1.4v13.6
			c0,0.8-0.6,1.4-1.4,1.4c-0.8,0-1.4-0.6-1.4-1.4V69.4z M95.3,91.2c0-0.8,0.6-1.4,1.4-1.4c0.8,0,1.4,0.6,1.4,1.4v13.6
			c0,0.8-0.6,1.4-1.4,1.4c-0.8,0-1.4-0.6-1.4-1.4V91.2z M84.4,69.4c0-0.8,0.6-1.4,1.4-1.4c0.8,0,1.4,0.6,1.4,1.4v13.6
			c0,0.8-0.6,1.4-1.4,1.4c-0.8,0-1.4-0.6-1.4-1.4V69.4z M84.4,91.2c0-0.8,0.6-1.4,1.4-1.4c0.8,0,1.4,0.6,1.4,1.4v13.6
			c0,0.8-0.6,1.4-1.4,1.4c-0.8,0-1.4-0.6-1.4-1.4V91.2z M73.5,69.4c0-0.8,0.6-1.4,1.4-1.4c0.8,0,1.4,0.6,1.4,1.4v13.6
			c0,0.8-0.6,1.4-1.4,1.4c-0.8,0-1.4-0.6-1.4-1.4V69.4z M73.5,91.2c0-0.8,0.6-1.4,1.4-1.4c0.8,0,1.4,0.6,1.4,1.4v13.6
			c0,0.8-0.6,1.4-1.4,1.4c-0.8,0-1.4-0.6-1.4-1.4V91.2z M62.6,69.4c0-0.8,0.6-1.4,1.4-1.4c0.8,0,1.4,0.6,1.4,1.4v13.6
			c0,0.8-0.6,1.4-1.4,1.4c-0.8,0-1.4-0.6-1.4-1.4V69.4z M62.6,91.2c0-0.8,0.6-1.4,1.4-1.4c0.8,0,1.4,0.6,1.4,1.4v13.6
			c0,0.8-0.6,1.4-1.4,1.4c-0.8,0-1.4-0.6-1.4-1.4V91.2z M51.7,69.4c0-0.8,0.6-1.4,1.4-1.4c0.8,0,1.4,0.6,1.4,1.4v13.6
			c0,0.8-0.6,1.4-1.4,1.4c-0.8,0-1.4-0.6-1.4-1.4V69.4z M51.7,91.2c0-0.8,0.6-1.4,1.4-1.4c0.8,0,1.4,0.6,1.4,1.4v13.6
			c0,0.8-0.6,1.4-1.4,1.4c-0.8,0-1.4-0.6-1.4-1.4V91.2z M40.9,69.4c0-0.8,0.6-1.4,1.4-1.4c0.8,0,1.4,0.6,1.4,1.4v13.6
			c0,0.8-0.6,1.4-1.4,1.4c-0.8,0-1.4-0.6-1.4-1.4V69.4z M40.9,91.2c0-0.8,0.6-1.4,1.4-1.4c0.8,0,1.4,0.6,1.4,1.4v13.6
			c0,0.8-0.6,1.4-1.4,1.4c-0.8,0-1.4-0.6-1.4-1.4V91.2z M30,69.4c0-0.8,0.6-1.4,1.4-1.4c0.8,0,1.4,0.6,1.4,1.4v13.6
			c0,0.8-0.6,1.4-1.4,1.4c-0.8,0-1.4-0.6-1.4-1.4V69.4z M30,91.2c0-0.8,0.6-1.4,1.4-1.4c0.8,0,1.4,0.6,1.4,1.4v13.6
			c0,0.8-0.6,1.4-1.4,1.4c-0.8,0-1.4-0.6-1.4-1.4V91.2z"/>
	</g>
</g>
<g id="_x31_4_1_" class="st0">
	<g id="icon_1_" class="st1">
		<path class="st2" d="M95.3,49.6c-2.2,0-3.9,1.8-3.9,3.9c0,2.2,1.8,3.9,3.9,3.9s3.9-1.8,3.9-3.9C99.3,51.4,97.5,49.6,95.3,49.6z
			 M96.5,44.4c-1.3-16.1-14.8-28.7-31.2-28.7c-16.4,0-29.9,12.6-31.2,28.7H0v15.7h7.8l10.4,52.2h91.4l10.4-49.6h7.8V44.4H96.5z
			 M65.3,19.9c15,0,27.2,12.2,27.2,27.2c-31,0-23.1,0-54.3,0C38.1,32,50.3,19.9,65.3,19.9z M23.5,107.1h-2.6l-0.9-5.2h3.5V107.1z
			 M23.5,88.8h-8.2v2.6h8.2v7.8h-4L16.3,81h7.2V88.8z M23.5,78.4h-7.7l-1.4-7.8h9.1V78.4z M23.5,67.9H14l-0.9-5.2h10.4V67.9z
			 M39.2,107.1H26.1v-5.2h13.1V107.1z M39.2,99.3H26.1v-7.8h13.1V99.3z M39.2,88.8H26.1V81h13.1V88.8z M39.2,78.4H26.1v-7.8h13.1
			V78.4z M39.2,67.9H26.1v-5.2h13.1V67.9z M35.3,60.1c-3.6,0-6.5-2.9-6.5-6.5c0-3.6,2.9-6.5,6.5-6.5c3.6,0,6.5,2.9,6.5,6.5
			C41.8,57.2,38.9,60.1,35.3,60.1z M54.9,107.1H41.8v-5.2h13.1V107.1z M54.9,99.3H41.8v-7.8h13.1V99.3z M54.9,88.8H41.8V81h13.1
			V88.8z M54.9,78.4H41.8v-7.8h13.1V78.4z M54.9,67.9H41.8v-5.2h13.1V67.9z M70.5,107.1H57.5v-5.2h13.1V107.1z M70.5,99.3H57.5v-7.8
			h13.1V99.3z M70.5,88.8H57.5V81h13.1V88.8z M70.5,78.4H57.5v-7.8h13.1V78.4z M70.5,67.9H57.5v-5.2h13.1V67.9z M86.2,107.1H73.1
			v-5.2h13.1V107.1z M86.2,99.3H73.1v-7.8h13.1V99.3z M86.2,88.8H73.1V81h13.1V88.8z M86.2,78.4H73.1v-7.8h13.1V78.4z M86.2,67.9
			H73.1v-5.2h13.1V67.9z M101.9,107.1H88.8v-5.2h13.1V107.1z M101.9,99.3H88.8v-7.8h13.1V99.3z M101.9,88.8H88.8V81h13.1V88.8z
			 M101.9,78.4H88.8v-7.8h13.1V78.4z M101.9,67.9H88.8v-5.2h13.1V67.9z M95.3,60.1c-3.6,0-6.5-2.9-6.5-6.5c0-3.6,2.9-6.5,6.5-6.5
			c3.6,0,6.5,2.9,6.5,6.5C101.9,57.2,99,60.1,95.3,60.1z M107.1,107.1h-2.6v-5.2h5.2v-2.6h-5.2v-7.8h6.9v-2.6h-6.9V81h7.2
			L107.1,107.1z M112.2,78.4h-7.7v-7.8h9.1L112.2,78.4z M114,67.9h-9.5v-5.2h10.4L114,67.9z M35.3,49.6c-2.2,0-3.9,1.8-3.9,3.9
			c0,2.2,1.8,3.9,3.9,3.9s3.9-1.8,3.9-3.9C39.2,51.4,37.4,49.6,35.3,49.6z"/>
	</g>
</g>
<g id="_x31_3_1_" class="st0">
	<g id="icon_2_" class="st1">
		<path class="st2" d="M125.1,43.6h-20.4V17.5H84.4v-2.9H46.5v2.9H26.2v26.2H2.9c-1.6,0-2.9,1.3-2.9,2.9v8.7c0,1.6,1.3,2.9,2.9,2.9
			h122.2c1.6,0,2.9-1.3,2.9-2.9v-8.7C128,44.9,126.7,43.6,125.1,43.6z M98.9,43.6H32V23.3h14.5v2.9h37.8v-2.9h14.5V43.6z
			 M20.4,107.6c0,3.2,2.6,5.8,5.8,5.8h72.7c3.2,0,5.8-2.6,5.8-5.8l14.5-46.5H8.7L20.4,107.6z M81.5,71.3c0-5,8.7-5,8.7,0v29.1
			c0,5-8.7,5-8.7,0V71.3z M58.2,71.3c0-5,8.7-5,8.7,0v29.1c0,5-8.7,5-8.7,0V71.3z M34.9,71.3c0-5,8.7-5,8.7,0v29.1c0,5-8.7,5-8.7,0
			V71.3z"/>
	</g>
</g>
<g id="_x31_2_1_" class="st0">
	<g id="icon_3_" class="st1">
		<path class="st2" d="M72.7,106.2V68.4h-5.8v37.8H72.7z M61.1,68.4h-5.8v37.8h5.8V68.4z M84.4,68.4h-5.8v37.8h5.8V68.4z M58.2,62.5
			h14.5c1.6,0,2.9-1.3,2.9-2.9V10.2H55.3v49.5C55.3,61.2,56.6,62.5,58.2,62.5z M65.5,48c2.4,0,4.4,2,4.4,4.4s-2,4.4-4.4,4.4
			c-2.4,0-4.4-2-4.4-4.4S63,48,65.5,48z M78.5,45.1v17.5h34.9v46.5c0,1.6-1.3,2.9-2.9,2.9H17.5c-1.6,0-2.9-1.3-2.9-2.9V62.5h37.8
			V45.1H0v17.5h8.7V112c0,3.2,2.6,5.8,5.8,5.8h98.9c3.2,0,5.8-2.6,5.8-5.8V62.4l8.7,0.2V45.1H78.5z M26.2,106.2V68.4h-5.8v37.8H26.2
			z M49.5,106.2V68.4h-5.8v37.8H49.5z M90.2,68.4v37.8H96V68.4H90.2z M37.8,106.2V68.4H32v37.8H37.8z M101.8,68.4v37.8h5.8V68.4
			H101.8z"/>
	</g>
</g>
<g id="_x31_1_1_" class="st0">
	<g id="icon_4_" class="st1">
		<path class="st2" d="M20,120.5c0,0,3.5,3.4,6.2,3.4h75.5c0,0,5.2,0.2,6.1-3.6l16.8-62H3.3L20,120.5z M95.2,110.8H32.8
			c-1.8,0-3.3-1.5-3.3-3.3s1.5-3.3,3.3-3.3h62.4c1.8,0,3.3,1.5,3.3,3.3S97,110.8,95.2,110.8z M98.5,94.4H29.5
			c-1.8,0-3.3-1.5-3.3-3.3s1.5-3.3,3.3-3.3h68.9c1.8,0,3.3,1.5,3.3,3.3S100.3,94.4,98.5,94.4z M26.3,71.4h75.5
			c1.8,0,3.3,1.5,3.3,3.3c0,1.8-1.5,3.3-3.3,3.3H26.3c-1.8,0-3.3-1.5-3.3-3.3C23,72.9,24.4,71.4,26.3,71.4z M109.1,45.1L84.2,10.4
			c0.1-0.5,0.3-0.9,0.3-1.4c0-2.7-2.2-4.9-4.9-4.9S74.7,6.3,74.7,9c0,2.7,2.2,4.9,4.9,4.9c0.5,0,0.9-0.1,1.3-0.3l21.4,31.4H25.6
			l21.5-31.4c0.3,0.1,0.7,0.2,1,0.2c2.7,0,4.9-2.2,4.9-4.9c0-2.7-2.2-4.9-4.9-4.9c-2.7,0-4.9,2.2-4.9,4.9c0,0.5,0.1,1,0.3,1.5
			L18.9,45.1H0V55h128v-9.8H109.1z"/>
	</g>
</g>
<g id="_x31_0_1_" class="st0">
	<g id="icon_5_" class="st1">
		<path class="st2" d="M93.8,55.7l-4.7-10.6l-4.5,10.4L89.3,66L93.8,55.7z M100,41.6l-4.7-10.6l-4.6,10.5L95.4,52L100,41.6z
			 M87.6,69.8l-4.7-10.6l-4.8,11h9.4L87.6,69.8z M100,69.9l-4.7-10.6l-4.8,11h9.4L100,69.9z M111.5,39.3l-3.8-8.4l-4.6,10.5l4.1,9.2
			L111.5,39.3z M87.5,41.5l-4.7-10.6l-4.6,10.5L82.9,52L87.5,41.5z M110.8,66.1l-3.4-7.6L103,70.2h6.2L110.8,66.1z M105.8,54.6
			l-4.2-9.5L97,55.5l4.6,10.3L105.8,54.6z M116.6,50.7l-3.4-7.6L109,54.4l3.4,7.6L116.6,50.7z M40.6,39.4l4.6,10.7l4.5-9.5
			l-4.6-10.3L40.6,39.4z M56.4,55.5l-5.1-11.3l-4.5,9.6l5.1,11.8L56.4,55.5z M118.2,46.5l9.8-26.2h-6.2l-7,18.7L118.2,46.5z
			 M62.5,41.5l-4.9-10.9L53,40.7l5,11.1L62.5,41.5z M75.2,69.7l-4.7-10.6l-4.5,10.2l0,0.1l-0.1,0l-0.3,0.8h9.4L75.2,69.7z M75,41.5
			l-4.7-10.6l-4.6,10.5l4.8,10.5L75,41.5z M81.3,55.7L76.6,45L72,55.4l4.8,10.5L81.3,55.7z M62.7,69.6L58,59.1l-4.5,10.2l0.1,0.1
			l-0.1,0l-0.3,0.8h9.4L62.7,69.6z M68.8,55.6L64.1,45l-4.5,10.3l4.8,10.5L68.8,55.6z M81.2,27.4L78,20.3h-3.1l-3.1,7l4.7,10.6
			L81.2,27.4z M21.9,114h12.5v-6.2H21.9V114z M46.8,20.3h-3.1l1.5,3.2L46.8,20.3z M59.3,20.3h-3.1l1.5,3.4L59.3,20.3z M51.3,37.1
			l4.8-10.1l-3-6.8H50l-3.2,6.6L51.3,37.1z M43.5,26.8l-2.9-6.5h-8.2L39,35.6L43.5,26.8z M118.6,20.3h-6.2l-3.1,7l3.7,8L118.6,20.3z
			 M46.8,101.5c-5.2,0-9.4,4.2-9.4,9.4c0,5.2,4.2,9.4,9.4,9.4s9.4-4.2,9.4-9.4C56.2,105.7,52,101.5,46.8,101.5z M59.3,114h25v-6.2
			h-25V114z M44.2,70.2H50l-9.7-23.9L24.1,7.8H0V14h20l20.6,53.1L21.9,89v6.2h96.8v12.5h-9.4v6.2h15.6v-6.2V89H28.1L44.2,70.2z
			 M96.8,20.3h-3.1l1.6,3.5L96.8,20.3z M64.1,37.9l4.6-10.5l-3.1-7.1h-3.1l-3.2,6.8L64.1,37.9z M109.3,20.3h-3.1l1.6,3.5L109.3,20.3
			z M106.2,27.3l-3.2-7.1h-3.1l-3.1,7l4.7,10.6L106.2,27.3z M71.8,20.3h-3.1l1.6,3.5L71.8,20.3z M93.7,27.4l-3.1-7.1h-3.1l-3.1,7
			l4.7,10.6L93.7,27.4z M84.3,20.3h-3.1l1.6,3.5L84.3,20.3z M96.8,101.5c-5.2,0-9.4,4.2-9.4,9.4c0,5.2,4.2,9.4,9.4,9.4
			c5.2,0,9.4-4.2,9.4-9.4C106.1,105.7,102,101.5,96.8,101.5z"/>
	</g>
</g>
<g id="_x39__1_" class="st0">
	<g id="icon_6_" class="st1">
		<path class="st2" d="M31.2,42.1V14V7.8H0V14h25v28.1v6.2v50c0,0,44.4,0,46.8,0c31,0,41.5-12.4,50-31.2c1.1-2.5,2.1-5.9,3-9.4h0.1
			v-0.4c1.9-7.5,3.1-15.2,3.1-15.2H31.2z M119.9,54.6H87.4v3.1H119c-1.1,3.4-2.3,6.9-3.5,9.4h-25v3.1H114c-1.8,3.5-3.8,6.6-6.2,9.4
			H87.4v3.1h17.3c-6.8,5.9-16.6,9.4-32.9,9.4c-15.6,0-40.6,0-40.6,0v-9.4h21.9v-3.1H31.2v-9.4H50v-3.1H31.2v-9.4h21.9v-3.1H31.2
			v-6.2c0,0,32.2,0,40.6,0c15,0,50,0,50,0S121,51.1,119.9,54.6z M40.6,101.5c-5.2,0-9.4,4.2-9.4,9.4c0,5.2,4.2,9.4,9.4,9.4
			s9.4-4.2,9.4-9.4C50,105.7,45.8,101.5,40.6,101.5z M81.2,101.5c-5.2,0-9.4,4.2-9.4,9.4c0,5.2,4.2,9.4,9.4,9.4
			c5.2,0,9.4-4.2,9.4-9.4C90.5,105.7,86.3,101.5,81.2,101.5z"/>
	</g>
	<g id="delete" class="st1">
		<path class="st2" d="M70.2,51.5c-9.5,0-17.2,7.7-17.2,17.2s7.7,17.2,17.2,17.2s17.2-7.7,17.2-17.2S79.7,51.5,70.2,51.5z
			 M79.1,75.3l-2.2,2.2l-6.6-6.6l-6.6,6.6l-2.2-2.2l6.6-6.6l-6.6-6.6l2.2-2.2l6.6,6.6l6.6-6.6l2.2,2.2l-6.6,6.6L79.1,75.3z"/>
	</g>
	<g id="add">
		<path class="st3" d="M70.2,51.5c-9.5,0-17.2,7.7-17.2,17.2s7.7,17.2,17.2,17.2s17.2-7.7,17.2-17.2S79.7,51.5,70.2,51.5z
			 M62.4,76.5l-3.1-9.4l3.1-3.1l3.1,6.2l14.3-9.4l1.4,2.9L62.4,76.5z"/>
	</g>
</g>
<g id="_x38__1_" class="st0">
	<g id="icon_7_" class="st1">
		<path class="st2" d="M27.4,13.7V7.6H0v6.1h21.3V99h6.1h70.1V93H27.4V13.7z M33.5,68.6h82.3v-6.1H33.5V68.6z M33.5,83.8h73.1v-6.1
			H33.5V83.8z M36.6,102.1c-5,0-9.1,4.1-9.1,9.1c0,5.1,4.1,9.1,9.1,9.1s9.1-4.1,9.1-9.1C45.7,106.2,41.6,102.1,36.6,102.1z
			 M82.3,102.1c-5,0-9.1,4.1-9.1,9.1c0,5.1,4.1,9.1,9.1,9.1c5,0,9.1-4.1,9.1-9.1C91.4,106.2,87.3,102.1,82.3,102.1z M33.5,53.3h88.4
			v-6.1H33.5V53.3z M33.5,32v6.1H128V32H33.5z"/>
	</g>
</g>
<g id="_x37__1_" class="st0">
	<g id="icon_8_" class="st1">
		<path class="st2" d="M107.6,74.2L128,27.6H40.7l11.6,46.5H107.6z M90.6,57.7l8.7-16.8c0.8-1.5,2.6-2.1,4-1.2
			c1.4,0.9,1.9,2.9,1.1,4.4l-8.7,16.8c-0.8,1.5-2.6,2.1-4,1.2C90.2,61.2,89.8,59.3,90.6,57.7z M76,57.7l8.7-16.8
			c0.8-1.5,2.6-2.1,4-1.2c1.4,0.9,1.9,2.9,1.1,4.4l-8.7,16.8c-0.8,1.5-2.6,2.1-4,1.2C75.7,61.2,75.2,59.3,76,57.7z M61.5,57.7
			l8.7-16.8c0.8-1.5,2.6-2.1,4-1.2c1.4,0.9,1.9,2.9,1.1,4.4l-8.7,16.8c-0.8,1.5-2.6,2.1-4,1.2C61.2,61.2,60.7,59.3,61.5,57.7z
			 M32,10.2H20.4V7.3H8.7c0,0-8.7,1.6-8.7,5.8c0,4.5,8.7,5.8,8.7,5.8h11.6V16h5.8l20.4,69.8h66.9v5.8H46.5v5.8h72.7V85.8V80H49.5
			L32,10.2z M103.3,100.4c-5.6,0-10.2,4.6-10.2,10.2c0,5.6,4.6,10.2,10.2,10.2s10.2-4.6,10.2-10.2
			C113.5,104.9,108.9,100.4,103.3,100.4z M103.3,117.8c-4,0-7.3-3.3-7.3-7.3c0-4,3.3-7.3,7.3-7.3s7.3,3.3,7.3,7.3
			C110.5,114.6,107.3,117.8,103.3,117.8z M59.6,100.4c-5.6,0-10.2,4.6-10.2,10.2c0,5.6,4.6,10.2,10.2,10.2s10.2-4.6,10.2-10.2
			C69.8,104.9,65.3,100.4,59.6,100.4z M59.6,117.8c-4,0-7.3-3.3-7.3-7.3c0-4,3.3-7.3,7.3-7.3s7.3,3.3,7.3,7.3
			C66.9,114.6,63.7,117.8,59.6,117.8z"/>
	</g>
</g>
<g id="_x36__1_" class="st0">
	<g id="icon_9_" class="st1">
		<path class="st2" d="M19.3,14.4c-0.3-1.3-1.4-2.2-2.7-2.2H2.7C1.2,12.3,0,13.5,0,15c0,1.5,1.2,2.7,2.7,2.7h11.7l25.8,74.1
			c0.3,1.3,1.4,2.2,2.7,2.2h71.6v-5.4H45.1L19.3,14.4z M111.7,83.1L128,34H32.7l16.3,49H111.7z M51.7,77.6l-1.6-5.4h1.6V77.6z
			 M108.9,47.7h8.2v-2.7h-8.2v-5.4h10.9l-3.9,13.6h-7V47.7z M108.9,55.8h6.2l-1.6,5.4h-4.7V55.8z M108.9,64h3.9l-1.6,5.4h-2.3V64z
			 M108.9,72.2h1.6l-1.6,5.4V72.2z M98,39.5h8.2v5.4H98V39.5z M98,47.7h8.2v5.4H98V47.7z M98,55.8h8.2v5.4H98V55.8z M98,64h8.2v5.4
			H98V64z M98,72.2h8.2v5.4H98V72.2z M87.2,39.5h8.2v5.4h-8.2V39.5z M87.2,47.7h8.2v5.4h-8.2V47.7z M87.2,55.8h8.2v5.4h-8.2V55.8z
			 M87.2,64h8.2v5.4h-8.2V64z M87.2,72.2h8.2v5.4h-8.2V72.2z M76.3,39.5h8.2v5.4h-8.2V39.5z M76.3,47.7h8.2v5.4h-8.2V47.7z
			 M76.3,55.8h8.2v5.4h-8.2V55.8z M76.3,64h8.2v5.4h-8.2V64z M76.3,72.2h8.2v5.4h-8.2V72.2z M65.4,39.5h8.2v5.4h-8.2V39.5z
			 M65.4,47.7h8.2v5.4h-8.2V47.7z M65.4,55.8h8.2v5.4h-8.2V55.8z M65.4,64h8.2v5.4h-8.2V64z M65.4,72.2h8.2v5.4h-8.2V72.2z
			 M54.5,39.5h8.2v5.4h-8.2V39.5z M54.5,47.7h8.2v5.4h-8.2V47.7z M54.5,55.8h8.2v5.4h-8.2V55.8z M54.5,64h8.2v5.4h-8.2V64z
			 M54.5,72.2h8.2v5.4h-8.2V72.2z M40.9,39.5h10.9v5.4h-8.2v2.7h8.2v5.4h-7L40.9,39.5z M45.5,55.8h6.2v5.4h-4.7L45.5,55.8z M51.7,64
			v5.4h-2.3L47.9,64H51.7z M102.1,96.7c-5.3,0-9.5,4.3-9.5,9.5s4.3,9.5,9.5,9.5c5.3,0,9.5-4.3,9.5-9.5S107.4,96.7,102.1,96.7z
			 M50.4,96.7c-5.3,0-9.5,4.3-9.5,9.5s4.3,9.5,9.5,9.5c5.3,0,9.5-4.3,9.5-9.5S55.6,96.7,50.4,96.7z"/>
	</g>
</g>
<g id="_x35__1_" class="st0">
	<g id="icon_10_" class="st1">
		<path class="st2" d="M124.5,39.8h-3.5h-83v6.9h83v6.9h-83v6.9h83v6.9h-83v6.9h83v6.9H31.1V8.6V1.7H0v6.9h24.2v79.6h6.9H128v-3.5
			v-3.5V39.8H124.5z M24.2,102.1H128v-6.9H24.2V102.1z M45,105.5c-5.7,0-10.4,4.6-10.4,10.4c0,5.7,4.6,10.4,10.4,10.4
			c5.7,0,10.4-4.6,10.4-10.4C55.4,110.2,50.7,105.5,45,105.5z M107.2,105.5c-5.7,0-10.4,4.6-10.4,10.4c0,5.7,4.6,10.4,10.4,10.4
			c5.7,0,10.4-4.6,10.4-10.4C117.6,110.2,113,105.5,107.2,105.5z"/>
	</g>
</g>
<g id="_x34__1_">
	<g id="icon_11_">
		<path class="st2" d="M45.3,81.2h78V43.7L35.9,25.4l-3.1-12.9L20.2,8.3c0-0.2,0.1-0.3,0.1-0.5c0-4.3-3.5-7.8-7.8-7.8
			C8.2,0,4.7,3.5,4.7,7.8c0,4.3,3.5,7.8,7.8,7.8c1.8,0,3.4-0.6,4.7-1.6l9.4,4.7L39,78l-12.5,9.4V103l5.7,7.1c-1.6,1.9-2.5,4.3-2.5,7
			c0,6,4.9,10.9,10.9,10.9s10.9-4.9,10.9-10.9c0-6-4.9-10.9-10.9-10.9c-0.9,0-1.8,0.1-2.6,0.3l-2.1-3.4h65.6l3.6,6
			c-2.2,2-3.6,4.9-3.6,8.1c0,6,4.9,10.9,10.9,10.9c6,0,10.9-4.9,10.9-10.9c0-6-4.9-10.9-10.9-10.9c-0.1,0-0.2,0-0.3,0l-1.3-3.1h12.5
			v-6.2H32.8v-6.2L45.3,81.2z M45.3,74.9l-4.6-21.4l0.6,3l18.5,1.5l3.8,17H45.3z M67.1,74.9l-3.7-16.7l18.1,1.4l1.4,15.3H67.1z
			 M85.9,74.9l-1.4-15l17,1.3v13.7H85.9z M117.1,59.3v15.6h-12.5V61.5l12.5,1L117.1,59.3l-12.5-1V44.4l0,0l12.5,2.4V59.3z
			 M35.9,31.2l65.6,12.6V58l-17.3-1.4l-1.5-16.4l-3.1-0.6l1.6,16.8l-18.5-1.5l-4.3-19.3l-3.7-0.7l4.4,19.7l-18.5-1.5L35.9,31.2z
			 M112.4,112.4c2.6,0,4.7,2.1,4.7,4.7c0,2.6-2.1,4.7-4.7,4.7c-2.6,0-4.7-2.1-4.7-4.7C107.7,114.5,109.8,112.4,112.4,112.4z
			 M40.6,112.4c2.6,0,4.7,2.1,4.7,4.7c0,2.6-2.1,4.7-4.7,4.7s-4.7-2.1-4.7-4.7C35.9,114.5,38,112.4,40.6,112.4z"/>
	</g>
</g>
<g id="_x33__1_" class="st0">
	<g id="icon_12_" class="st1">
		<path class="st2" d="M51.5,97.4c-5.4,0-9.7,4.4-9.7,9.7c0,5.4,4.4,9.7,9.7,9.7s9.7-4.4,9.7-9.7C61.2,101.8,56.9,97.4,51.5,97.4z
			 M51.5,111.3c-2.3,0-4.2-1.9-4.2-4.2s1.9-4.2,4.2-4.2c2.3,0,4.2,1.9,4.2,4.2S53.8,111.3,51.5,111.3z M19.7,13.4
			c-0.3-1.3-1.4-2.2-2.7-2.2H2.8c-1.5,0-2.8,1.2-2.8,2.8c0,1.5,1.2,2.8,2.8,2.8h11.9L41,92.4c0.3,1.3,1.4,2.2,2.7,2.2h73.1V89H46
			L19.7,13.4z M104.3,97.4c-5.4,0-9.7,4.4-9.7,9.7c0,5.4,4.4,9.7,9.7,9.7c5.4,0,9.7-4.4,9.7-9.7C114.1,101.8,109.7,97.4,104.3,97.4z
			 M104.3,111.3c-2.3,0-4.2-1.9-4.2-4.2s1.9-4.2,4.2-4.2s4.2,1.9,4.2,4.2S106.7,111.3,104.3,111.3z M33.4,33.4l2.8,5.6h5.6l79.4,0
			c0,0-0.5,3.4-2.5,8.3H38.3l0.7,2.8h78.5c-0.9,2-2.1,4.2-3.5,6.5c-0.4,0.6-0.9,1.2-1.4,1.8H41.1l0.7,2.8h67.8
			c-7,5.6-18.5,8.3-25.6,8.3c-5.2,0-36.3,0-39.3,0h0c-0.1,0-0.2,0-0.2,0c0,0,0.1,0,0.2,0l-0.2,0l2.8,5.6c0,0,27.9,0,33.4,0
			c16,0,29.1-4.9,36.2-13.9C126.4,49,128,33.4,128,33.4H33.4z M109.7,61.2l2.7-2.6C111.6,59.5,110.7,60.4,109.7,61.2z"/>
	</g>
</g>
<g id="_x32__1_" class="st0">
	<g id="icon_13_" class="st1">
		<path class="st2" d="M61.1,40.7h14.5V32H61.1V40.7z M78.5,55.3h14.5V43.6H78.5V55.3z M43.6,40.7h14.5V32H43.6V40.7z M78.5,40.7
			h14.5V32H78.5V40.7z M61.1,55.3h14.5V43.6H61.1V55.3z M45.1,98.9c-5.6,0-10.2,4.6-10.2,10.2c0,5.6,4.6,10.2,10.2,10.2
			c5.6,0,10.2-4.6,10.2-10.2C55.3,103.5,50.7,98.9,45.1,98.9z M100.4,98.9c-5.6,0-10.2,4.6-10.2,10.2c0,5.6,4.6,10.2,10.2,10.2
			c5.6,0,10.2-4.6,10.2-10.2C110.5,103.5,106,98.9,100.4,98.9z M109.6,43.6H96v11.6h9.7L109.6,43.6z M110.5,40.7l2.9-8.7H96v8.7
			L110.5,40.7L110.5,40.7z M43.6,55.3h14.5V43.6H43.6V55.3z M61.1,66.9h14.5v-8.7H61.1V66.9z M78.5,66.9h14.5v-8.7H78.5V66.9z
			 M104.7,58.2H96v8.7h5.8l3-9L104.7,58.2z M33,75.7l74.6,0L128,23.3l-105,0l-2.5-12.2c-0.3-1.4-1.5-2.3-2.8-2.3H2.9
			C1.3,8.7,0,10,0,11.6c0,1.6,1.3,2.9,2.9,2.9h12.5l15.9,79.1c0.3,1.4,1.5,2.3,2.8,2.3h79.3v-5.8h-77L33,75.7z M32,69.8l-8.7-40.7
			h17.5h2.9h14.5h2.9h14.5h2.9h14.5H96h23.3l-14.5,40.7H32z M43.6,66.9h14.5v-8.7H43.6V66.9z M33,55.3h7.8V43.6H31L33,55.3z
			 M34.9,66.9h5.8v-8.7h-7.3L34.9,66.9z M30.6,41.2l-0.1-0.5h10.2V32H29.1L30.6,41.2z"/>
	</g>
</g>
<g id="_x31__1_" class="st0">
	<g id="icon_14_" class="st1">
		<path class="st2" d="M92.1,96c-5.2,0-9.3,4.2-9.3,9.3c0,5.2,4.2,9.3,9.3,9.3s9.3-4.2,9.3-9.3C101.4,100.2,97.3,96,92.1,96z
			 M92.1,112c-3.7,0-6.7-3-6.7-6.7c0-3.7,3-6.7,6.7-6.7s6.7,3,6.7,6.7C98.8,109.1,95.8,112,92.1,112z M41.4,96
			c-5.2,0-9.3,4.2-9.3,9.3c0,5.2,4.2,9.3,9.3,9.3s9.3-4.2,9.3-9.3C50.7,100.2,46.5,96,41.4,96z M41.4,112c-3.7,0-6.7-3-6.7-6.7
			c0-3.7,3-6.7,6.7-6.7s6.7,3,6.7,6.7C48.1,109.1,45.1,112,41.4,112z M127.6,38.5c-0.5-0.8-1.3-1.2-2.2-1.2h-102l-4.4-21.9
			c-0.3-1.2-1.3-2.1-2.6-2.1H2.7C1.2,13.3,0,14.5,0,16c0,1.5,1.2,2.7,2.7,2.7h11.4l14.6,72.6c0.3,1.2,1.3,2.1,2.6,2.1h72.2
			c1.1,0,2-0.6,2.4-1.6L127.8,41C128.1,40.2,128.1,39.3,127.6,38.5z M101.7,88H33.5l-2.7-13.3h76.7L101.7,88z M108.6,72H30.3
			l-2.7-13.3h86.8L108.6,72z M115.5,56H27l-2.7-13.3h96.9L115.5,56z"/>
	</g>
</g>
</svg>
